{
  "accessors": [
    {
      "bufferView": 2,
      "componentType": 5126,
      "count": 148,
      "max": [
        0.10083422809839249,
        0.2691877484321594,
        0.2691877484321594
      ],
      "min": [
        -0.10042458027601242,
        -0.2691877484321594,
        -0.2691877484321594
      ],
      "type": "VEC3"
    },
    {
      "bufferView": 2,
      "byteOffset": 1776,
      "componentType": 5126,
      "count": 148,
      "max": [
        1.0,
        0.9753592610359192,
        0.9753592610359192
      ],
      "min": [
        -1.0,
        -0.9753592610359192,
        -0.9753592610359192
      ],
      "type": "VEC3"
    },
    {
      "bufferView": 1,
      "componentType": 5126,
      "count": 148,
      "max": [
        0.9352639317512512,
        0.9305176734924316
      ],
      "min": [
        0.06906920671463013,
        0.06432285904884338
      ],
      "type": "VEC2"
    },
    {
      "bufferView": 0,
      "componentType": 5125,
      "count": 648,
      "type": "SCALAR"
    },
    {
      "bufferView": 2,
      "byteOffset": 3552,
      "componentType": 5126,
      "count": 148,
      "max": [
        0.10083422809839249,
        0.2691877484321594,
        0.2691877484321594
      ],
      "min": [
        -0.10042458027601242,
        -0.2691877484321594,
        -0.2691877484321594
      ],
      "type": "VEC3"
    },
    {
      "bufferView": 2,
      "byteOffset": 5328,
      "componentType": 5126,
      "count": 148,
      "max": [
        1.0,
        0.9753592610359192,
        0.9753592610359192
      ],
      "min": [
        -1.0,
        -0.9753592610359192,
        -0.9753592610359192
      ],
      "type": "VEC3"
    },
    {
      "bufferView": 1,
      "byteOffset": 1184,
      "componentType": 5126,
      "count": 148,
      "max": [
        0.9352639317512512,
        0.9305176734924316
      ],
      "min": [
        0.06906920671463013,
        0.06432285904884338
      ],
      "type": "VEC2"
    },
    {
      "bufferView": 0,
      "byteOffset": 2592,
      "componentType": 5125,
      "count": 648,
      "type": "SCALAR"
    },
    {
      "bufferView": 2,
      "byteOffset": 7104,
      "componentType": 5126,
      "count": 148,
      "max": [
        0.10083422809839249,
        0.2691877484321594,
        0.2691877484321594
      ],
      "min": [
        -0.10042458027601242,
        -0.2691877484321594,
        -0.2691877484321594
      ],
      "type": "VEC3"
    },
    {
      "bufferView": 2,
      "byteOffset": 8880,
      "componentType": 5126,
      "count": 148,
      "max": [
        1.0,
        0.9753592610359192,
        0.9753592610359192
      ],
      "min": [
        -1.0,
        -0.9753592610359192,
        -0.9753592610359192
      ],
      "type": "VEC3"
    },
    {
      "bufferView": 1,
      "byteOffset": 2368,
      "componentType": 5126,
      "count": 148,
      "max": [
        0.9352639317512512,
        0.9305176734924316
      ],
      "min": [
        0.06906920671463013,
        0.06432285904884338
      ],
      "type": "VEC2"
    },
    {
      "bufferView": 0,
      "byteOffset": 5184,
      "componentType": 5125,
      "count": 648,
      "type": "SCALAR"
    },
    {
      "bufferView": 2,
      "byteOffset": 10656,
      "componentType": 5126,
      "count": 148,
      "max": [
        0.10083422809839249,
        0.2691877484321594,
        0.2691877484321594
      ],
      "min": [
        -0.10042458027601242,
        -0.2691877484321594,
        -0.2691877484321594
      ],
      "type": "VEC3"
    },
    {
      "bufferView": 2,
      "byteOffset": 12432,
      "componentType": 5126,
      "count": 148,
      "max": [
        1.0,
        0.9753592610359192,
        0.9753592610359192
      ],
      "min": [
        -1.0,
        -0.9753592610359192,
        -0.9753592610359192
      ],
      "type": "VEC3"
    },
    {
      "bufferView": 1,
      "byteOffset": 3552,
      "componentType": 5126,
      "count": 148,
      "max": [
        0.9352639317512512,
        0.9305176734924316
      ],
      "min": [
        0.06906920671463013,
        0.06432285904884338
      ],
      "type": "VEC2"
    },
    {
      "bufferView": 0,
      "byteOffset": 7776,
      "componentType": 5125,
      "count": 648,
      "type": "SCALAR"
    },
    {
      "bufferView": 2,
      "byteOffset": 14208,
      "componentType": 5126,
      "count": 1169,
      "max": [
        0.8323789834976196,
        1.7808736562728882,
        0.47830289602279663
      ],
      "min": [
        -0.8199598789215088,
        -2.2127504348754883,
        -0.7863787412643433
      ],
      "type": "VEC3"
    },
    {
      "bufferView": 2,
      "byteOffset": 28236,
      "componentType": 5126,
      "count": 1169,
      "max": [
        1.0,
        0.9998871684074402,
        1.0
      ],
      "min": [
        -1.0,
        -0.989013135433197,
        -1.0
      ],
      "type": "VEC3"
    },
    {
      "bufferView": 3,
      "componentType": 5126,
      "count": 1169,
      "max": [
        0.9999998807907104,
        0.9999991059303284,
        1.0,
        1.0
      ],
      "min": [
        -1.0,
        -1.0,
        -1.0,
        1.0
      ],
      "type": "VEC4"
    },
    {
      "bufferView": 1,
      "byteOffset": 4736,
      "componentType": 5126,
      "count": 1169,
      "max": [
        0.9974222183227539,
        0.9876538515090942
      ],
      "min": [
        0.0025749814230948687,
        0.0025710503105074167
      ],
      "type": "VEC2"
    },
    {
      "bufferView": 0,
      "byteOffset": 10368,
      "componentType": 5125,
      "count": 3558,
      "type": "SCALAR"
    }
  ],
  "asset": {
    "extras": {
      "author": "Ashkelon (https://sketchfab.com/Ashkelon)",
      "license": "CC-BY-4.0 (http://creativecommons.org/licenses/by/4.0/)",
      "source": "https://sketchfab.com/3d-models/lada-3ca82c72c01044cabab5313165c3ca37",
      "title": "LADA"
    },
    "generator": "Sketchfab-15.17.0",
    "version": "2.0"
  },
  "bufferViews": [
    {
      "buffer": 0,
      "byteLength": 24600,
      "name": "floatBufferViews",
      "target": 34963
    },
    {
      "buffer": 0,
      "byteLength": 14088,
      "byteOffset": 24600,
      "byteStride": 8,
      "name": "floatBufferViews",
      "target": 34962
    },
    {
      "buffer": 0,
      "byteLength": 42264,
      "byteOffset": 38688,
      "byteStride": 12,
      "name": "floatBufferViews",
      "target": 34962
    },
    {
      "buffer": 0,
      "byteLength": 18704,
      "byteOffset": 80952,
      "byteStride": 16,
      "name": "floatBufferViews",
      "target": 34962
    }
  ],
  "buffers": [
    {
      "byteLength": 99656,
      "uri": "scene.bin"
    }
  ],
  "extensionsUsed": [
    "KHR_materials_specular"
  ],
  "images": [
    {
      "uri": "textures/TexturesCom_Wheels0106_M_baseColor.jpeg"
    },
    {
      "uri": "textures/Lada_baseColor.png"
    },
    {
      "uri": "textures/Lada_metallicRoughness.png"
    },
    {
      "uri": "textures/Lada_normal.png"
    }
  ],
  "materials": [
    {
      "doubleSided": true,
      "name": "TexturesCom_Wheels0106_M",
      "pbrMetallicRoughness": {
        "baseColorTexture": {
          "index": 0
        },
        "metallicFactor": 0.0,
        "roughnessFactor": 0.8239417257461427
      }
    },
    {
      "doubleSided": true,
      "extensions": {
        "KHR_materials_specular": {
          "specularColorFactor": [
            1.0,
            1.0,
            1.0
          ],
          "specularFactor": 0.06042642820938637
        }
      },
      "name": "Lada",
      "normalTexture": {
        "index": 3
      },
      "occlusionTexture": {
        "index": 2
      },
      "pbrMetallicRoughness": {
        "baseColorTexture": {
          "index": 1
        },
        "metallicRoughnessTexture": {
          "index": 2
        }
      }
    }
  ],
  "meshes": [
    {
      "name": "Cylinder.003_TexturesCom_Wheels0106_M_0",
      "primitives": [
        {
          "attributes": {
            "NORMAL": 1,
            "POSITION": 0,
            "TEXCOORD_0": 2
          },
          "indices": 3,
          "material": 0,
          "mode": 4
        }
      ]
    },
    {
      "name": "Cylinder.002_TexturesCom_Wheels0106_M_0",
      "primitives": [
        {
          "attributes": {
            "NORMAL": 5,
            "POSITION": 4,
            "TEXCOORD_0": 6
          },
          "indices": 7,
          "material": 0,
          "mode": 4
        }
      ]
    },
    {
      "name": "Cylinder.001_TexturesCom_Wheels0106_M_0",
      "primitives": [
        {
          "attributes": {
            "NORMAL": 9,
            "POSITION": 8,
            "TEXCOORD_0": 10
          },
          "indices": 11,
          "material": 0,
          "mode": 4
        }
      ]
    },
    {
      "name": "Cylinder_TexturesCom_Wheels0106_M_0",
      "primitives": [
        {
          "attributes": {
            "NORMAL": 13,
            "POSITION": 12,
            "TEXCOORD_0": 14
          },
          "indices": 15,
          "material": 0,
          "mode": 4
        }
      ]
    },
    {
      "name": "Lada_Lada_0",
      "primitives": [
        {
          "attributes": {
            "NORMAL": 17,
            "POSITION": 16,
            "TANGENT": 18,
            "TEXCOORD_0": 19
          },
          "indices": 20,
          "material": 1,
          "mode": 4
        }
      ]
    }
  ],
  "nodes": [
    {
      "children": [
        1
      ],
      "matrix": [
        1.0,
        0.0,
        0.0,
        0.0,
        0.0,
        2.220446049250313e-16,
        -1.0,
        0.0,
        0.0,
        1.0,
        2.220446049250313e-16,
        0.0,
        0.0,
        0.0,
        0.0,
        1.0
      ],
      "name": "Sketchfab_model"
    },
    {
      "children": [
        2
      ],
      "matrix": [
        0.009999999776482582,
        0.0,
        0.0,
        0.0,
        0.0,
        0.0,
        0.009999999776482582,
        0.0,
        0.0,
        -0.009999999776482582,
        0.0,
        0.0,
        0.0,
        0.0,
        0.0,
        1.0
      ],
      "name": "25b798c7c87f43bd9d518e1c6af78092.fbx"
    },
    {
      "children": [
        3,
        5,
        7,
        9,
        11
      ],
      "name": "RootNode"
    },
    {
      "children": [
        4
      ],
      "matrix": [
        -102.46138763426956,
        1.254789887565231e-14,
        3.989993750954681e-05,
        0.0,
        3.98999375095467e-05,
        7.73561957910805e-06,
        102.46138763426927,
        0.0,
        -2.9998135785457945e-12,
        102.46138763427703,
        -7.735619567732552e-06,
        0.0,
        -67.077392578125,
        27.009374618530273,
        -121.35700988769531,
        1.0
      ],
      "name": "Cylinder.003"
    },
    {
      "mesh": 0,
      "name": "Cylinder.003_TexturesCom_Wheels0106_M_0"
    },
    {
      "children": [
        6
      ],
      "matrix": [
        -102.46138763426956,
        1.254789887565231e-14,
        3.989993750954681e-05,
        0.0,
        3.98999375095467e-05,
        7.73561957910805e-06,
        102.46138763426927,
        0.0,
        -2.9998135785457945e-12,
        102.46138763427703,
        -7.735619567732552e-06,
        0.0,
        -67.0773696899414,
        27.009374618530273,
        122.06039428710938,
        1.0
      ],
      "name": "Cylinder.002"
    },
    {
      "mesh": 1,
      "name": "Cylinder.002_TexturesCom_Wheels0106_M_0"
    },
    {
      "children": [
        8
      ],
      "matrix": [
        102.46138763427734,
        0.0,
        0.0,
        0.0,
        0.0,
        -1.6693078884806257e-05,
        -102.461387634276,
        0.0,
        0.0,
        102.461387634276,
        -1.6693078884806257e-05,
        0.0,
        67.86537170410156,
        27.009374618530273,
        -121.35700988769531,
        1.0
      ],
      "name": "Cylinder.001"
    },
    {
      "mesh": 2,
      "name": "Cylinder.001_TexturesCom_Wheels0106_M_0"
    },
    {
      "children": [
        10
      ],
      "matrix": [
        102.46138763427734,
        0.0,
        0.0,
        0.0,
        0.0,
        -1.6693078884806257e-05,
        -102.461387634276,
        0.0,
        0.0,
        102.461387634276,
        -1.6693078884806257e-05,
        0.0,
        67.86537170410156,
        27.009374618530273,
        122.06039428710938,
        1.0
      ],
      "name": "Cylinder"
    },
    {
      "mesh": 3,
      "name": "Cylinder_TexturesCom_Wheels0106_M_0"
    },
    {
      "children": [
        12
      ],
      "matrix": [
        100.0,
        0.0,
        0.0,
        0.0,
        0.0,
        -1.629206793918314e-05,
        -99.99999999999868,
        0.0,
        0.0,
        99.99999999999868,
        -1.629206793918314e-05,
        0.0,
        0.0,
        91.90335845947266,
        -20.706037521362305,
        1.0
      ],
      "name": "Lada"
    },
    {
      "mesh": 4,
      "name": "Lada_Lada_0"
    }
  ],
  "samplers": [
    {
      "magFilter": 9729,
      "minFilter": 9987,
      "wrapS": 10497,
      "wrapT": 10497
    }
  ],
  "scene": 0,
  "scenes": [
    {
      "name": "Sketchfab_Scene",
      "nodes": [
        0
      ]
    }
  ],
  "textures": [
    {
      "sampler": 0,
      "source": 0
    },
    {
      "sampler": 0,
      "source": 1
    },
    {
      "sampler": 0,
      "source": 2
    },
    {
      "sampler": 0,
      "source": 3
    }
  ]
}
