{
  "accessors": [
    {
      "bufferView": 2,
      "componentType": 5126,
      "count": 3806,
      "max": [
        89.40666198730469,
        119.11821746826172,
        213.78466796875
      ],
      "min": [
        -89.40666198730469,
        0.05460929870605469,
        -181.89999389648438
      ],
      "type": "VEC3"
    },
    {
      "bufferView": 2,
      "byteOffset": 45672,
      "componentType": 5126,
      "count": 3806,
      "max": [
        1.0,
        1.0,
        1.0
      ],
      "min": [
        -1.0,
        -1.0,
        -1.0
      ],
      "type": "VEC3"
    },
    {
      "bufferView": 1,
      "componentType": 5126,
      "count": 3806,
      "max": [
        0.9890597462654114,
        0.9970933198928833
      ],
      "min": [
        0.011496726423501968,
        0.007667861878871918
      ],
      "type": "VEC2"
    },
    {
      "bufferView": 0,
      "componentType": 5125,
      "count": 14004,
      "type": "SCALAR"
    },
    {
      "bufferView": 2,
      "byteOffset": 91344,
      "componentType": 5126,
      "count": 372,
      "max": [
        84.4287338256836,
        48.97639465332031,
        157.58761596679688
      ],
      "min": [
        -84.4287338256836,
        10.736248016357422,
        -122.33407592773438
      ],
      "type": "VEC3"
    },
    {
      "bufferView": 2,
      "byteOffset": 95808,
      "componentType": 5126,
      "count": 372,
      "max": [
        1.0,
        0.6300406455993652,
        0.6984204649925232
      ],
      "min": [
        -1.0,
        -0.7027132511138916,
        -0.6984052658081055
      ],
      "type": "VEC3"
    },
    {
      "bufferView": 1,
      "byteOffset": 30448,
      "componentType": 5126,
      "count": 372,
      "max": [
        0.6698838472366333,
        0.12498216331005096
      ],
      "min": [
        0.5612289309501648,
        0.02159940078854561
      ],
      "type": "VEC2"
    },
    {
      "bufferView": 0,
      "byteOffset": 56016,
      "componentType": 5125,
      "count": 756,
      "type": "SCALAR"
    },
    {
      "bufferView": 2,
      "byteOffset": 100272,
      "componentType": 5126,
      "count": 152,
      "max": [
        62.51871109008789,
        63.44354248046875,
        212.2368621826172
      ],
      "min": [
        -43.02869415283203,
        19.462392807006836,
        -169.97679138183594
      ],
      "type": "VEC3"
    },
    {
      "bufferView": 2,
      "byteOffset": 102096,
      "componentType": 5126,
      "count": 152,
      "max": [
        0.999722957611084,
        1.0,
        0.9996998310089111
      ],
      "min": [
        -0.999722957611084,
        -1.0,
        -0.9968385100364685
      ],
      "type": "VEC3"
    },
    {
      "bufferView": 1,
      "byteOffset": 33424,
      "componentType": 5126,
      "count": 152,
      "max": [
        0.8963669538497925,
        0.8924581408500671
      ],
      "min": [
        0.25782206654548645,
        0.014686708338558674
      ],
      "type": "VEC2"
    },
    {
      "bufferView": 0,
      "byteOffset": 59040,
      "componentType": 5125,
      "count": 414,
      "type": "SCALAR"
    },
    {
      "bufferView": 2,
      "byteOffset": 103920,
      "componentType": 5126,
      "count": 151,
      "max": [
        70.69102478027344,
        115.02857208251953,
        92.6270980834961
      ],
      "min": [
        -70.69102478027344,
        82.45167541503906,
        -133.82083129882813
      ],
      "type": "VEC3"
    },
    {
      "bufferView": 2,
      "byteOffset": 105732,
      "componentType": 5126,
      "count": 151,
      "max": [
        0.959168553352356,
        0.9905273914337158,
        0.47902244329452515
      ],
      "min": [
        -0.959168553352356,
        0.25333526730537415,
        -0.301762193441391
      ],
      "type": "VEC3"
    },
    {
      "bufferView": 1,
      "byteOffset": 34640,
      "componentType": 5126,
      "count": 151,
      "max": [
        0.49182456731796265,
        0.7539631128311157
      ],
      "min": [
        0.14770078659057617,
        0.3586687743663788
      ],
      "type": "VEC2"
    },
    {
      "bufferView": 0,
      "byteOffset": 60696,
      "componentType": 5125,
      "count": 654,
      "type": "SCALAR"
    },
    {
      "bufferView": 2,
      "byteOffset": 107544,
      "componentType": 5126,
      "count": 258,
      "max": [
        80.19754791259766,
        100.59510803222656,
        201.74569702148438
      ],
      "min": [
        -80.19754791259766,
        26.028423309326172,
        -166.11529541015625
      ],
      "type": "VEC3"
    },
    {
      "bufferView": 2,
      "byteOffset": 110640,
      "componentType": 5126,
      "count": 258,
      "max": [
        0.9996156096458435,
        0.9988144040107727,
        0.9168546795845032
      ],
      "min": [
        -0.9996156096458435,
        -0.9983929991722107,
        -0.924652636051178
      ],
      "type": "VEC3"
    },
    {
      "bufferView": 1,
      "byteOffset": 35848,
      "componentType": 5126,
      "count": 258,
      "max": [
        0.4986821115016937,
        0.9641184210777283
      ],
      "min": [
        0.14803451299667358,
        0.03825187683105469
      ],
      "type": "VEC2"
    },
    {
      "bufferView": 0,
      "byteOffset": 63312,
      "componentType": 5125,
      "count": 582,
      "type": "SCALAR"
    },
    {
      "bufferView": 2,
      "byteOffset": 113736,
      "componentType": 5126,
      "count": 18,
      "max": [
        81.65447998046875,
        101.97972869873047,
        -100.80706024169922
      ],
      "min": [
        -8.881784197001252e-16,
        23.9217529296875,
        -166.49142456054688
      ],
      "type": "VEC3"
    },
    {
      "bufferView": 2,
      "byteOffset": 113952,
      "componentType": 5126,
      "count": 18,
      "max": [
        0.6712453365325928,
        0.9413132071495056,
        0.9751014709472656
      ],
      "min": [
        -0.0341503880918026,
        -0.9990621209144592,
        -0.9740734100341797
      ],
      "type": "VEC3"
    },
    {
      "bufferView": 1,
      "byteOffset": 37912,
      "componentType": 5126,
      "count": 18,
      "max": [
        0.9872942566871643,
        0.9712721109390259
      ],
      "min": [
        0.2699280083179474,
        0.39729583263397217
      ],
      "type": "VEC2"
    },
    {
      "bufferView": 0,
      "byteOffset": 65640,
      "componentType": 5125,
      "count": 30,
      "type": "SCALAR"
    }
  ],
  "asset": {
    "extras": {
      "author": "Miguelcs16 (https://sketchfab.com/Miguelcs16)",
      "license": "CC-BY-4.0 (http://creativecommons.org/licenses/by/4.0/)",
      "source": "https://sketchfab.com/3d-models/carro-d1e54f291eb54d068f4332e17430ad29",
      "title": "CARRO"
    },
    "generator": "Sketchfab-12.68.0",
    "version": "2.0"
  },
  "bufferViews": [
    {
      "buffer": 0,
      "byteLength": 65760,
      "name": "floatBufferViews",
      "target": 34963
    },
    {
      "buffer": 0,
      "byteLength": 38056,
      "byteOffset": 65760,
      "byteStride": 8,
      "name": "floatBufferViews",
      "target": 34962
    },
    {
      "buffer": 0,
      "byteLength": 114168,
      "byteOffset": 103816,
      "byteStride": 12,
      "name": "floatBufferViews",
      "target": 34962
    }
  ],
  "buffers": [
    {
      "byteLength": 217984,
      "uri": "scene.bin"
    }
  ],
  "images": [
    {
      "uri": "textures/lambert2_baseColor.jpeg"
    },
    {
      "uri": "textures/lambert2_metallicRoughness.png"
    },
    {
      "uri": "textures/lambert6_baseColor.png"
    },
    {
      "uri": "textures/lambert7_metallicRoughness.png"
    }
  ],
  "materials": [
    {
      "doubleSided": true,
      "name": "lambert2",
      "pbrMetallicRoughness": {
        "baseColorTexture": {
          "index": 0
        },
        "metallicRoughnessTexture": {
          "index": 1
        },
        "roughnessFactor": 0.12331351196882087
      }
    },
    {
      "doubleSided": true,
      "emissiveFactor": [
        1.0,
        1.0,
        1.0
      ],
      "emissiveTexture": {
        "index": 0
      },
      "name": "lambert3",
      "pbrMetallicRoughness": {
        "baseColorTexture": {
          "index": 0
        },
        "metallicFactor": 0.0,
        "roughnessFactor": 0.6
      }
    },
    {
      "doubleSided": true,
      "name": "lambert5",
      "pbrMetallicRoughness": {
        "baseColorTexture": {
          "index": 0
        },
        "metallicRoughnessTexture": {
          "index": 1
        },
        "roughnessFactor": 0.1050729924788258
      }
    },
    {
      "alphaMode": "BLEND",
      "doubleSided": true,
      "name": "lambert6",
      "pbrMetallicRoughness": {
        "baseColorFactor": [
          1.0,
          1.0,
          1.0,
          0.27531784105211315
        ],
        "baseColorTexture": {
          "index": 2
        },
        "metallicFactor": 0.0,
        "roughnessFactor": 0.6
      }
    },
    {
      "doubleSided": true,
      "emissiveFactor": [
        1.0,
        1.0,
        1.0
      ],
      "emissiveTexture": {
        "index": 0
      },
      "name": "lambert4",
      "pbrMetallicRoughness": {
        "baseColorTexture": {
          "index": 0
        },
        "metallicFactor": 0.0,
        "roughnessFactor": 0.6
      }
    },
    {
      "doubleSided": true,
      "name": "lambert7",
      "pbrMetallicRoughness": {
        "baseColorTexture": {
          "index": 0
        },
        "metallicRoughnessTexture": {
          "index": 3
        },
        "roughnessFactor": 0.5732463260553661
      }
    }
  ],
  "meshes": [
    {
      "name": "polySurface11_lambert2_0",
      "primitives": [
        {
          "attributes": {
            "NORMAL": 1,
            "POSITION": 0,
            "TEXCOORD_0": 2
          },
          "indices": 3,
          "material": 0,
          "mode": 4
        }
      ]
    },
    {
      "name": "polySurface11_lambert3_0",
      "primitives": [
        {
          "attributes": {
            "NORMAL": 5,
            "POSITION": 4,
            "TEXCOORD_0": 6
          },
          "indices": 7,
          "material": 1,
          "mode": 4
        }
      ]
    },
    {
      "name": "polySurface11_lambert5_0",
      "primitives": [
        {
          "attributes": {
            "NORMAL": 9,
            "POSITION": 8,
            "TEXCOORD_0": 10
          },
          "indices": 11,
          "material": 2,
          "mode": 4
        }
      ]
    },
    {
      "name": "polySurface11_lambert6_0",
      "primitives": [
        {
          "attributes": {
            "NORMAL": 13,
            "POSITION": 12,
            "TEXCOORD_0": 14
          },
          "indices": 15,
          "material": 3,
          "mode": 4
        }
      ]
    },
    {
      "name": "polySurface11_lambert4_0",
      "primitives": [
        {
          "attributes": {
            "NORMAL": 17,
            "POSITION": 16,
            "TEXCOORD_0": 18
          },
          "indices": 19,
          "material": 4,
          "mode": 4
        }
      ]
    },
    {
      "name": "polySurface11_lambert7_0",
      "primitives": [
        {
          "attributes": {
            "NORMAL": 21,
            "POSITION": 20,
            "TEXCOORD_0": 22
          },
          "indices": 23,
          "material": 5,
          "mode": 4
        }
      ]
    }
  ],
  "nodes": [
    {
      "children": [
        1
      ],
      "matrix": [
        1.0,
        0.0,
        0.0,
        0.0,
        0.0,
        2.220446049250313e-16,
        -1.0,
        0.0,
        0.0,
        1.0,
        2.220446049250313e-16,
        0.0,
        0.0,
        0.0,
        0.0,
        1.0
      ],
      "name": "Sketchfab_model"
    },
    {
      "children": [
        2
      ],
      "matrix": [
        1.0,
        0.0,
        0.0,
        0.0,
        0.0,
        0.0,
        1.0,
        0.0,
        0.0,
        -1.0,
        0.0,
        0.0,
        0.0,
        0.0,
        0.0,
        1.0
      ],
      "name": "6f4061df40b34f789e93013c3d97408e.fbx"
    },
    {
      "children": [
        3
      ],
      "name": "RootNode"
    },
    {
      "children": [
        4,
        5,
        6,
        7,
        8,
        9
      ],
      "name": "polySurface11"
    },
    {
      "mesh": 0,
      "name": "polySurface11_lambert2_0"
    },
    {
      "mesh": 1,
      "name": "polySurface11_lambert3_0"
    },
    {
      "mesh": 2,
      "name": "polySurface11_lambert5_0"
    },
    {
      "mesh": 3,
      "name": "polySurface11_lambert6_0"
    },
    {
      "mesh": 4,
      "name": "polySurface11_lambert4_0"
    },
    {
      "mesh": 5,
      "name": "polySurface11_lambert7_0"
    }
  ],
  "samplers": [
    {
      "magFilter": 9729,
      "minFilter": 9987,
      "wrapS": 10497,
      "wrapT": 10497
    }
  ],
  "scene": 0,
  "scenes": [
    {
      "name": "Sketchfab_Scene",
      "nodes": [
        0
      ]
    }
  ],
  "textures": [
    {
      "sampler": 0,
      "source": 0
    },
    {
      "sampler": 0,
      "source": 1
    },
    {
      "sampler": 0,
      "source": 2
    },
    {
      "sampler": 0,
      "source": 3
    }
  ]
}
